<svg version="1.1" id="Layer_1" xmlns="http://www.w3.org/2000/svg" xmlns:xlink="http://www.w3.org/1999/xlink" x="0px" y="0px"
	 width="100%" viewBox="0 0 1043 1008" enable-background="new 0 0 1043 1008" xml:space="preserve">
<path fill="#FFFFFF" opacity="1.000000" stroke="none"
	d="M1.000003,1007.000000 C1.000000,671.728943 1.000000,336.457947 1.000000,1.093451 C348.666656,1.093451 696.333313,1.093451 1044.000000,1.093451 C1044.000000,336.395630 1044.000000,671.697815 1044.000000,1007.000000 C696.333374,1007.000000 348.666718,1007.000000 1.000003,1007.000000 z"/>
<path fill="#013692" opacity="1.000000" stroke="none"
	d="M464.072479,320.458405 C491.766205,320.402435 519.459900,320.347900 547.153625,320.288879 C551.134033,320.280396 555.114380,320.250366 559.481445,320.221252 C559.868164,320.212158 559.941406,320.467133 560.047241,320.604309 C560.432312,320.648438 560.711609,320.555389 561.250854,320.369324 C561.673706,320.190460 561.836548,320.104645 562.456604,320.131775 C583.583862,320.344818 604.253967,320.444946 625.035034,320.915649 C625.449341,322.891052 626.015381,324.495453 626.017517,326.100677 C626.065796,361.722900 626.004822,397.345367 626.118591,432.967316 C626.130615,436.730865 625.311035,438.212738 621.164551,438.161743 C603.023193,437.938568 584.876770,437.980011 566.734131,438.141235 C563.078003,438.173737 561.794617,437.182373 561.852051,433.378876 C562.055786,419.898773 561.963135,406.413483 561.892639,392.930634 C561.882446,390.974091 561.381165,389.020142 561.444336,387.010559 C567.593872,381.069427 573.433228,375.209167 579.212952,369.290588 C592.117065,356.076477 605.017944,342.858948 617.850403,329.575439 C619.878113,327.476501 621.541626,325.025757 623.297302,322.832825 C623.038147,322.422729 622.956787,322.180817 622.875061,322.180695 C569.904236,322.102692 516.933411,322.040894 463.973450,321.724487 C464.013702,321.132812 464.043091,320.795593 464.072479,320.458405 z"/>
<path fill="#0C3E96" opacity="1.000000" stroke="none"
	d="M559.999146,577.096191 C543.253296,577.017395 526.507507,576.912048 509.761536,576.867737 C494.832092,576.828247 479.902405,576.856262 464.422668,576.389526 C463.570923,573.826233 463.019043,571.729370 463.007385,569.629456 C462.913666,552.754517 462.921844,535.878967 463.256409,519.030029 C469.591248,524.724426 475.667664,530.292236 481.525360,536.081299 C493.609314,548.023621 505.499908,560.162903 517.680847,572.004333 C519.360718,573.637390 522.236755,574.866089 524.567139,574.879578 C556.713257,575.065918 588.861084,574.942505 621.007629,575.089783 C624.946045,575.107849 626.129028,574.008240 626.080811,570.034607 C625.874695,553.047363 625.993225,536.056213 625.992493,519.066528 C625.992188,512.003723 625.991150,512.000488 619.109314,512.000549 C571.471497,512.000610 523.833618,512.026855 476.196014,511.919922 C474.127289,511.915283 472.061340,510.691406 470.304382,509.878052 C473.100037,509.898224 475.585754,510.233490 478.070862,510.229279 C505.380615,510.182983 532.690308,510.083801 560.250977,510.083191 C560.668274,510.108368 560.834534,510.049286 561.459961,510.092957 C583.278442,510.125824 604.637939,510.055969 626.218750,510.089905 C626.440063,510.193726 626.927490,510.233063 626.972534,510.685303 C626.994629,533.034790 626.971680,554.932068 626.700256,576.843384 C626.451721,576.857422 625.998352,577.063293 625.998352,577.063293 C607.639282,577.003235 589.280273,576.943176 570.015015,576.876038 C566.072205,576.944763 563.035706,577.020508 559.999146,577.096191 z"/>
<path fill="#013692" opacity="1.000000" stroke="none"
	d="M396.849731,507.238708 C400.126770,504.644806 403.635437,502.699493 406.386841,499.986206 C423.329926,483.278107 440.209229,466.500946 456.805359,449.450439 C459.069641,447.124207 460.683197,443.183960 460.803070,439.924957 C461.261597,427.461365 460.964172,414.970734 461.013916,402.490448 C461.020355,400.879730 461.407318,399.270508 462.017761,397.973755 C462.431610,430.668854 462.365295,463.051270 462.576080,495.431915 C462.598785,498.925598 464.228668,502.408844 464.746307,505.934845 C462.248840,507.316193 460.118103,508.659607 457.597290,510.002533 C455.487061,510.228760 453.766907,510.455475 452.046753,510.682190 C434.001770,510.613678 415.956818,510.545135 397.463440,510.504517 C396.835510,510.462952 396.656006,510.393433 396.260681,510.132721 C396.273682,509.138428 396.502502,508.335358 396.849731,507.238708 z"/>
<path fill="#013692" opacity="1.000000" stroke="none"
	d="M463.013306,369.963074 C463.011475,357.300812 463.009674,344.638580 463.233551,331.351959 C463.310669,330.136780 463.162109,329.545959 463.013550,328.955139 C463.011871,328.530243 463.010223,328.105377 463.283661,327.101715 C463.693970,325.013184 463.829132,323.503418 463.964294,321.993652 C516.933411,322.040894 569.904236,322.102692 622.875061,322.180695 C622.956787,322.180817 623.038147,322.422729 623.297302,322.832825 C621.541626,325.025757 619.878113,327.476501 617.850403,329.575439 C605.017944,342.858948 592.117065,356.076477 579.212952,369.290588 C573.433228,375.209167 567.593872,381.069427 561.128296,386.719116 C560.000732,386.348999 559.526550,386.100006 559.052185,386.099487 C530.661316,386.069672 502.270050,386.000671 473.880341,386.180023 C471.940765,386.192261 470.013062,388.080200 468.072937,389.073730 C466.725372,389.836609 466.042297,390.614349 465.276123,391.280518 C463.991516,392.678497 463.329376,393.960358 462.466125,395.433289 C461.407318,399.270508 461.020355,400.879730 461.013916,402.490448 C460.964172,414.970734 461.261597,427.461365 460.803070,439.924957 C460.683197,443.183960 459.069641,447.124207 456.805359,449.450439 C440.209229,466.500946 423.329926,483.278107 406.386841,499.986206 C403.635437,502.699493 400.126770,504.644806 396.968140,506.945129 C396.966919,469.200623 397.041595,431.455780 396.865265,393.712097 C396.844025,389.163818 398.018280,387.764740 402.667908,387.850281 C418.292480,388.137726 433.932037,388.191589 449.550201,387.763702 C452.708160,387.677216 455.797638,385.093414 458.939209,383.296753 C460.389221,381.210236 461.095428,379.516907 461.801636,377.823547 C462.215179,376.476593 462.612122,375.143005 463.257019,373.228943 C463.341064,371.753357 463.177216,370.858215 463.013306,369.963074 z"/>
<path fill="#1045A5" opacity="1.000000" stroke="none"
	d="M608.647949,676.459229 C622.731079,668.951477 636.035828,674.146240 640.557068,688.961182 C643.399963,698.276550 643.246887,707.710632 638.813904,716.629944 C632.450012,729.434326 615.535156,732.038879 605.603760,722.161682 C595.591919,712.204407 595.421814,684.872253 608.647949,676.459229 z"/>
<path fill="#1045A5" opacity="1.000000" stroke="none"
	d="M664.915283,673.326416 C667.351501,670.746582 669.845764,668.493042 672.997559,666.056885 C674.612854,665.322144 675.570557,664.770081 676.528320,664.218018 C676.869385,664.162048 677.210510,664.106018 678.070679,663.950195 C679.087524,663.579529 679.585388,663.308777 680.083191,663.038025 C680.564453,663.075317 681.133301,663.021362 682.346008,662.739624 C682.989807,662.511841 683.633606,662.283997 684.259644,662.375366 C685.127625,662.252075 685.565002,662.127625 686.002441,662.003235 C687.393311,662.036377 688.784180,662.069519 690.949341,662.138123 C692.481201,662.172485 693.238708,662.171387 693.996216,662.170288 C694.224976,662.445862 694.517944,662.569458 695.305786,662.631165 C696.147888,662.737671 696.559265,662.754028 696.970703,662.770386 C697.408142,662.890930 697.845581,663.011414 698.851685,663.346008 C700.257568,663.744934 701.094910,663.929749 701.932190,664.114624 C706.171997,668.125488 710.030090,671.635010 713.888245,675.144531 C714.557434,677.431641 715.197021,679.035095 715.836609,680.638611 C715.102051,681.675781 714.367493,682.712952 712.889038,683.748657 C710.094849,683.852417 708.044556,683.957581 705.994263,684.062744 C705.379150,683.554260 704.764038,683.045776 704.001953,681.955383 C703.301758,680.508667 702.748596,679.643799 702.195435,678.778992 C700.037598,676.754456 698.018188,675.346802 695.998718,673.939148 C694.821106,673.306702 694.424744,673.264282 694.028442,673.221802 C693.583435,673.108887 693.138489,672.995972 692.069580,672.759644 C689.949646,672.719116 688.453491,672.802063 686.957397,672.885010 C686.509583,672.873474 686.061707,672.861938 684.951721,672.937012 C683.671326,673.297058 683.053162,673.570496 682.434998,673.843872 C680.655457,674.937500 678.875854,676.031067 676.761230,677.556274 C676.225098,678.652893 676.124512,678.985413 675.600708,679.752930 C675.518921,682.293213 675.695618,684.342590 675.872375,686.391968 C676.401062,687.774231 676.660034,688.000366 676.918945,688.226562 C677.581055,689.314209 678.260437,689.802246 678.953552,690.116211 C680.484558,691.123169 681.719482,691.601868 682.954407,692.080566 C685.269226,693.038330 687.136353,693.490845 689.003479,693.943359 C692.528503,695.108704 694.764160,695.617004 696.999817,696.125244 C702.913269,699.550964 707.915344,702.381714 712.917419,705.212524 C713.417847,706.168091 713.167603,705.690308 713.908813,707.085815 C714.398804,707.781006 714.648071,708.036194 714.897278,708.291443 C715.397400,709.875549 715.628906,710.160034 715.860413,710.444580 C716.382996,713.438293 716.629944,714.241821 716.876953,715.045288 C716.825195,716.035583 716.773376,717.025940 716.643677,718.698853 C716.439697,720.577454 716.313599,721.773499 716.187561,722.969543 C715.940613,723.664795 715.940613,723.664795 715.616882,724.458496 C715.279114,725.616455 715.279114,725.616455 714.727539,726.709229 C714.160034,727.618774 714.160034,727.618774 713.664124,728.618835 C713.106140,729.642944 713.106140,729.642944 712.756836,730.068726 C712.220947,730.725281 712.220947,730.725281 711.116333,731.846497 C710.076965,732.661865 710.076965,732.661865 709.748535,733.064697 C709.096191,733.678711 709.096191,733.678711 708.694702,733.992126 C707.949463,734.536072 707.949463,734.536072 707.452759,734.852234 C703.682007,736.173706 700.290955,737.456299 696.899963,738.738770 C694.151001,738.904785 691.944397,739.010742 689.082458,739.069397 C687.052551,739.104980 685.022705,739.140564 684.279602,739.022156 C677.347351,736.832153 673.243774,735.223999 669.140259,733.615845 C668.921814,733.098022 668.315063,732.697998 667.367554,732.055237 C666.360413,731.055176 666.061523,730.869690 665.703857,730.195557 C664.051392,727.420288 663.059875,725.663635 662.068420,723.906982 C661.568665,721.690369 661.295959,720.888306 661.620239,719.291016 C661.944580,717.693787 663.079468,716.071167 666.252380,715.980408 C668.614624,715.914978 670.976929,715.849548 671.614990,716.048157 C672.253113,716.246765 673.062988,717.078369 674.252441,723.453369 C677.890015,726.690735 683.357727,727.947021 690.087830,729.493347 C696.664795,729.235352 701.950562,724.179077 706.386597,719.935547 C705.840088,713.382507 700.554321,710.139221 697.141663,708.045227 C692.966125,707.194519 689.132446,705.786682 684.756409,704.262268 C680.876038,703.186707 676.995605,702.111145 676.355591,701.658142 C675.356934,701.297607 675.026367,701.220459 674.273071,700.744385 C673.375916,700.189453 673.031677,700.266052 672.288330,699.740173 C671.383118,699.130127 671.024292,699.194946 670.433228,698.635803 C669.387451,698.062927 669.033875,697.912292 668.959595,697.729614 C668.297485,697.166687 667.996277,697.013550 667.915588,696.762451 C667.270447,696.194153 666.990112,696.028564 666.923462,695.756470 C666.295837,695.139343 666.021667,694.952087 665.959839,694.710999 C665.383240,693.921143 665.113464,693.669189 665.081848,693.264587 C664.317566,691.994873 664.085632,691.760742 664.091797,691.341614 C663.346008,689.457764 663.080505,688.970154 663.059814,688.517334 C662.860840,682.051453 662.843384,680.025635 662.960388,679.666199 C663.717590,677.280640 663.833984,676.643311 663.950378,676.005981 C664.291321,675.221558 664.632324,674.437073 664.915283,673.326416 z"/>
<path fill="#1045A5" opacity="1.000000" stroke="none"
	d="M543.967773,684.964722 C550.012573,684.304321 556.079895,683.644897 562.616577,682.960815 C564.038208,683.479309 564.665649,683.511597 565.293091,683.543945 C567.943054,686.166565 570.521240,688.055908 573.099426,689.945312 C573.549988,690.881592 574.007935,691.207031 574.465820,691.532532 C575.215759,693.844666 576.152710,695.407959 577.089722,696.971252 C577.356384,703.199341 578.045776,708.611938 577.933350,714.007690 C577.849182,718.047058 576.731873,722.064941 576.074585,726.092346 C575.502075,727.007874 575.448486,727.353516 575.004272,727.186523 C574.364746,728.654297 574.150635,729.445496 574.200684,729.990356 C570.676270,732.616638 567.151855,735.242920 562.994995,737.995117 C561.230469,738.605530 560.664368,738.847778 559.043274,738.898193 C557.422180,738.948608 555.151978,738.988403 554.166260,739.060974 C553.364136,738.982056 552.730408,738.861450 551.528198,738.546692 C550.306702,738.265442 549.653748,738.178406 549.000732,738.091309 C548.113953,738.032227 547.054626,737.895508 544.963501,736.526550 C543.488342,735.264893 542.016479,733.660767 540.284485,731.406128 C538.845703,729.820679 538.957458,731.844543 538.991760,734.253784 C538.793152,734.826782 538.736511,734.990479 538.493347,740.594727 C538.019897,746.201660 538.086548,751.802246 538.132385,755.655823 C536.878174,757.080750 532.911560,757.127258 528.760498,757.175903 C528.921753,754.860779 528.928162,752.005554 528.974915,731.183289 C528.952148,710.360779 528.961060,689.538391 528.963806,683.141907 C529.372925,682.827271 535.883484,683.911804 536.535889,684.020569 C537.212952,683.981995 538.271240,684.023682 538.720398,684.487366 C538.776855,684.939270 538.577209,685.983582 538.385498,688.014221 C538.449829,689.452454 538.514160,690.890747 539.028931,691.032227 C539.543701,691.173767 540.058533,691.315247 541.359619,689.187256 C542.660706,687.059265 543.961792,684.931274 543.967773,684.964722 M555.908447,728.841858 C558.970581,726.501831 563.104187,724.778992 564.879150,721.697571 C568.992065,714.557251 568.803955,706.665344 565.353516,699.115723 C562.831787,693.598206 557.899780,690.785461 552.050720,691.247253 C546.120178,691.715515 541.583008,694.858704 540.316956,700.494934 C539.144043,705.716919 538.801636,711.445435 539.607788,716.719421 C540.922607,725.321411 546.230286,728.964783 555.908447,728.841858 z"/>
<path fill="#1045A5" opacity="1.000000" stroke="none"
	d="M330.303375,678.770020 C341.621460,667.937378 357.037811,672.007141 363.718140,687.933228 C367.015991,687.933228 370.479797,687.933228 374.437836,687.523804 C374.851654,685.783142 374.771240,684.451843 374.690826,683.120544 C371.609711,673.368408 364.885864,667.081970 354.985474,663.163818 C353.521637,663.063110 352.761383,662.946716 352.001160,662.830383 C347.276459,662.876404 342.551788,662.922485 337.058899,663.012085 C335.556763,663.129456 334.822784,663.203308 334.088806,663.277100 C321.823120,666.858276 314.848114,675.524719 311.093628,688.004395 C310.694885,690.508362 310.253448,692.253540 309.812012,693.998779 C309.908600,698.448364 310.005188,702.897888 310.034363,708.077759 C311.354553,713.420288 312.742188,718.032593 314.129822,722.644897 C314.798065,723.487122 315.466278,724.329407 316.167480,725.790039 C319.706360,728.924805 323.245270,732.059570 327.230194,735.553345 C328.142639,736.215088 328.609039,736.517822 329.075409,736.820557 C331.458618,737.548462 333.841827,738.276367 337.023010,738.960938 C341.789764,739.235229 345.758606,739.552856 349.727417,739.870483 C350.641235,739.287048 351.488159,738.369080 352.478943,738.171082 C364.969879,735.674316 371.912903,727.662415 374.805359,715.219971 C373.053528,714.230713 371.522339,713.786377 369.991150,713.342041 C365.614532,712.949890 363.074158,714.651184 361.105682,718.907410 C357.830963,725.987915 351.296906,728.330017 343.801941,728.128784 C335.810699,727.914368 329.330139,724.302612 326.343414,717.090576 C324.013702,711.465088 323.752960,704.982788 322.632202,698.040527 C323.004578,695.049866 323.161102,693.974854 323.534943,691.616272 C324.098022,689.696411 324.661102,687.776489 325.482178,685.374451 C326.162811,684.161743 326.374146,683.796448 327.298065,682.421997 C328.221954,681.047546 329.489258,679.352966 330.303375,678.770020 z"/>
<path fill="#1045A5" opacity="1.000000" stroke="none"
	d="M429.061279,726.567383 C429.097321,729.045654 429.045532,731.092163 429.080872,733.569702 C429.091064,735.015381 429.014191,736.030029 428.512787,737.471375 C425.392273,738.306946 422.696289,738.715759 420.000275,739.124634 C419.574738,739.054993 419.149231,738.985291 418.253357,738.535156 C416.702087,737.146484 415.209686,735.076050 414.609558,735.308533 C411.520630,736.505371 408.660675,738.293335 405.720825,739.874939 C402.481537,739.841675 399.242279,739.808411 395.393250,739.382568 C388.932098,738.150024 385.333771,734.205750 382.088043,729.775696 C382.052032,729.379333 382.016022,728.982971 382.028015,727.886169 C382.097778,723.941284 381.420746,720.498291 382.275238,717.490417 C384.620728,709.234009 391.887268,707.315918 399.124481,705.649597 C400.007233,705.608765 400.007233,705.608765 401.103149,705.456055 C402.505035,705.182129 403.252350,705.040466 403.999695,704.898804 C404.898529,704.958679 404.898529,704.958679 406.061859,704.944946 C408.561401,704.611084 410.362915,704.394958 412.129669,704.016663 C417.249786,702.920410 419.075195,698.524353 415.627716,694.581116 C414.093201,692.825928 411.249268,692.215454 408.999664,691.085327 C407.270142,691.022278 405.540619,690.959229 403.155518,690.983032 C402.143616,691.064880 401.863800,691.208618 401.660431,691.501160 C398.824585,693.705505 396.807861,695.777100 394.791138,697.848633 C393.940277,698.203979 393.604919,698.469604 393.269531,698.735229 C390.299042,697.890381 388.179718,697.674683 386.060394,697.458984 C386.060394,697.458984 385.654388,697.256104 385.654388,697.256104 C385.654388,697.256104 385.200439,697.260620 384.740540,697.091309 C384.924377,694.331299 385.568115,691.740662 386.211792,689.150024 C390.829041,683.297424 397.072632,682.537537 403.165863,681.445557 C404.788513,681.423279 406.411133,681.401001 408.755005,681.633789 C419.660095,681.508179 425.968750,686.400635 428.768890,696.067139 C428.834991,699.086792 428.901093,702.106445 428.967468,705.963379 C429.027252,707.860352 429.086731,708.919983 429.146240,709.979614 C429.091034,712.036377 429.035828,714.093140 428.972656,716.949463 C429.021454,718.493408 429.078278,719.237732 429.135071,719.982056 C429.081207,722.033203 429.027344,724.084351 429.061279,726.567383 M398.764130,729.111633 C411.449799,732.414307 419.467041,724.458313 416.563660,711.577087 C411.172729,712.533997 405.763916,713.377625 400.410095,714.486572 C396.990906,715.194763 394.109314,716.842468 393.571411,720.770508 C393.058502,724.515991 394.646820,727.197571 398.764130,729.111633 z"/>
<path fill="#0343B1" opacity="1.000000" stroke="none"
	d="M468.079834,389.095825 C470.013062,388.080200 471.940765,386.192261 473.880341,386.180023 C502.270050,386.000671 530.661316,386.069672 559.052185,386.099487 C559.526550,386.100006 560.000732,386.348999 560.791016,386.773499 C561.381165,389.020142 561.882446,390.974091 561.892639,392.930634 C561.963135,406.413483 562.055786,419.898773 561.852051,433.378876 C561.794617,437.182373 563.078003,438.173737 566.734131,438.141235 C584.876770,437.980011 603.023193,437.938568 621.164551,438.161743 C625.311035,438.212738 626.130615,436.730865 626.118591,432.967316 C626.004822,397.345367 626.065796,361.722900 626.017517,326.100677 C626.015381,324.495453 625.449341,322.891052 625.035034,320.915649 C625.272461,320.328339 625.953979,320.174194 626.461304,320.128387 C626.955994,320.168182 627.021118,342.823486 627.101624,365.478729 C627.146118,388.134064 627.176819,403.795349 627.059082,435.116974 C627.043640,436.608887 625.601501,438.086090 624.005615,439.594055 C602.389160,439.647614 581.588867,439.677246 560.668030,439.475098 C560.180481,421.249512 560.180481,404.461548 560.180481,387.529785 C558.558167,387.432526 557.420654,387.305206 556.283142,387.304871 C530.124573,387.297272 503.965698,387.241577 477.807892,387.386108 C474.562164,387.404022 471.322388,388.499573 468.079834,389.095825 z"/>
<path fill="#FFFFFF" opacity="1.000000" stroke="none"
	d="M561.031738,443.003540 C573.370483,443.002350 585.710327,443.099854 598.047363,442.954681 C603.475159,442.890808 608.901550,442.049866 614.319824,442.132843 C616.640991,442.168396 618.939941,443.660065 621.248962,444.490082 C622.371094,445.592682 623.798096,445.302582 625.613770,445.005646 C626.003357,466.019470 626.004211,487.040131 626.002197,508.776428 C604.637939,510.055969 583.278442,510.125824 561.461914,509.625519 C561.013855,487.038086 561.022766,465.020813 561.031738,443.003540 z"/>
<path fill="#2E5191" opacity="1.000000" stroke="none"
	d="M451.570587,386.195435 C453.821899,385.196655 456.073242,384.197845 458.621643,383.429993 C455.797638,385.093414 452.708160,387.677216 449.550201,387.763702 C433.932037,388.191589 418.292480,388.137726 402.667908,387.850281 C398.018280,387.764740 396.844025,389.163818 396.865265,393.712097 C397.041595,431.455780 396.966919,469.200623 396.849731,507.238708 C396.502502,508.335358 396.273682,509.138428 395.773529,509.844299 C395.064117,509.397766 394.626038,509.048431 394.187988,508.699066 C394.227539,507.517365 394.207764,508.108215 394.474670,506.518005 C394.808380,505.738495 394.914734,505.367523 395.021057,504.996552 C395.092743,492.877960 395.207916,480.759399 395.227264,468.640747 C395.269714,442.062958 395.263611,415.485138 395.281525,388.296265 C395.567352,387.178558 395.984497,386.997192 397.186798,386.821503 C414.397125,386.841309 430.822327,386.872314 447.247375,386.840149 C448.688843,386.837341 450.129547,386.420166 451.570587,386.195435 z"/>
</svg>
